G04 #@! TF.FileFunction,Profile,NP*
%FSLAX46Y46*%
G04 Gerber Fmt 4.6, Leading zero omitted, Abs format (unit mm)*
G04 Created by KiCad (PCBNEW 4.0.1-stable) date 2/17/2016 5:57:31 PM*
%MOMM*%
G01*
G04 APERTURE LIST*
%ADD10C,0.100000*%
G04 APERTURE END LIST*
D10*
X86400000Y-18000000D02*
X86400000Y-44500000D01*
X82900000Y-17000000D02*
X85400000Y-17000000D01*
X43800000Y-17000000D02*
X79900000Y-17000000D01*
X81400000Y-18500000D02*
G75*
G03X82900000Y-17000000I0J1500000D01*
G01*
X79900000Y-17000000D02*
G75*
G03X81400000Y-18500000I1500000J0D01*
G01*
X86400000Y-18000000D02*
G75*
G03X85400000Y-17000000I-1000000J0D01*
G01*
X85400000Y-45500000D02*
G75*
G03X86400000Y-44500000I0J1000000D01*
G01*
X79900000Y-45500000D02*
X43800000Y-45500000D01*
X82900000Y-45500000D02*
X85400000Y-45500000D01*
X81400000Y-44000000D02*
G75*
G03X79900000Y-45500000I0J-1500000D01*
G01*
X82900000Y-45500000D02*
G75*
G03X81400000Y-44000000I-1500000J0D01*
G01*
X38300000Y-45500000D02*
X40800000Y-45500000D01*
X37300000Y-44500000D02*
G75*
G03X38300000Y-45500000I1000000J0D01*
G01*
X38300000Y-17000000D02*
G75*
G03X37300000Y-18000000I0J-1000000D01*
G01*
X42300000Y-44000000D02*
G75*
G03X40800000Y-45500000I0J-1500000D01*
G01*
X43800000Y-45500000D02*
G75*
G03X42300000Y-44000000I-1500000J0D01*
G01*
X38300000Y-17000000D02*
X40800000Y-17000000D01*
X42300000Y-18500000D02*
G75*
G03X43800000Y-17000000I0J1500000D01*
G01*
X40800000Y-17000000D02*
G75*
G03X42300000Y-18500000I1500000J0D01*
G01*
X37300000Y-44500000D02*
X37300000Y-18000000D01*
M02*
