G04 #@! TF.FileFunction,Legend,Bot*
%FSLAX46Y46*%
G04 Gerber Fmt 4.6, Leading zero omitted, Abs format (unit mm)*
G04 Created by KiCad (PCBNEW 4.0.1-stable) date 2/17/2016 5:57:31 PM*
%MOMM*%
G01*
G04 APERTURE LIST*
%ADD10C,0.100000*%
%ADD11C,0.300000*%
%ADD12C,0.150000*%
%ADD13C,0.010000*%
G04 APERTURE END LIST*
D10*
D11*
X52185713Y-23678571D02*
X53042856Y-23678571D01*
X52614284Y-23678571D02*
X52614284Y-22178571D01*
X52757141Y-22392857D01*
X52899999Y-22535714D01*
X53042856Y-22607143D01*
X51614285Y-22321429D02*
X51542856Y-22250000D01*
X51399999Y-22178571D01*
X51042856Y-22178571D01*
X50899999Y-22250000D01*
X50828570Y-22321429D01*
X50757142Y-22464286D01*
X50757142Y-22607143D01*
X50828570Y-22821429D01*
X51685713Y-23678571D01*
X50757142Y-23678571D01*
X50114285Y-23107143D02*
X48971428Y-23107143D01*
X48328571Y-22321429D02*
X48257142Y-22250000D01*
X48114285Y-22178571D01*
X47757142Y-22178571D01*
X47614285Y-22250000D01*
X47542856Y-22321429D01*
X47471428Y-22464286D01*
X47471428Y-22607143D01*
X47542856Y-22821429D01*
X48399999Y-23678571D01*
X47471428Y-23678571D01*
X46185714Y-22678571D02*
X46185714Y-23678571D01*
X46542857Y-22107143D02*
X46900000Y-23178571D01*
X45971428Y-23178571D01*
X45614286Y-22178571D02*
X45114286Y-23678571D01*
X44614286Y-22178571D01*
X78050002Y-35078571D02*
X77550002Y-36578571D01*
X77050002Y-35078571D01*
X76550002Y-36578571D02*
X76550002Y-35578571D01*
X76550002Y-35078571D02*
X76621431Y-35150000D01*
X76550002Y-35221429D01*
X76478574Y-35150000D01*
X76550002Y-35078571D01*
X76550002Y-35221429D01*
X75907145Y-36507143D02*
X75764288Y-36578571D01*
X75478573Y-36578571D01*
X75335716Y-36507143D01*
X75264288Y-36364286D01*
X75264288Y-36292857D01*
X75335716Y-36150000D01*
X75478573Y-36078571D01*
X75692859Y-36078571D01*
X75835716Y-36007143D01*
X75907145Y-35864286D01*
X75907145Y-35792857D01*
X75835716Y-35650000D01*
X75692859Y-35578571D01*
X75478573Y-35578571D01*
X75335716Y-35650000D01*
X74621430Y-36578571D02*
X74621430Y-35578571D01*
X74621430Y-35078571D02*
X74692859Y-35150000D01*
X74621430Y-35221429D01*
X74550002Y-35150000D01*
X74621430Y-35078571D01*
X74621430Y-35221429D01*
X74121430Y-35578571D02*
X73550001Y-35578571D01*
X73907144Y-35078571D02*
X73907144Y-36364286D01*
X73835716Y-36507143D01*
X73692858Y-36578571D01*
X73550001Y-36578571D01*
X72050001Y-35578571D02*
X71764287Y-36578571D01*
X71478573Y-35864286D01*
X71192858Y-36578571D01*
X70907144Y-35578571D01*
X70478572Y-35578571D02*
X70192858Y-36578571D01*
X69907144Y-35864286D01*
X69621429Y-36578571D01*
X69335715Y-35578571D01*
X68907143Y-35578571D02*
X68621429Y-36578571D01*
X68335715Y-35864286D01*
X68050000Y-36578571D01*
X67764286Y-35578571D01*
X67192857Y-36435714D02*
X67121429Y-36507143D01*
X67192857Y-36578571D01*
X67264286Y-36507143D01*
X67192857Y-36435714D01*
X67192857Y-36578571D01*
X66478571Y-36578571D02*
X66478571Y-35078571D01*
X65978571Y-36150000D01*
X65478571Y-35078571D01*
X65478571Y-36578571D01*
X64121428Y-36578571D02*
X64121428Y-35792857D01*
X64192857Y-35650000D01*
X64335714Y-35578571D01*
X64621428Y-35578571D01*
X64764285Y-35650000D01*
X64121428Y-36507143D02*
X64264285Y-36578571D01*
X64621428Y-36578571D01*
X64764285Y-36507143D01*
X64835714Y-36364286D01*
X64835714Y-36221429D01*
X64764285Y-36078571D01*
X64621428Y-36007143D01*
X64264285Y-36007143D01*
X64121428Y-35935714D01*
X63407142Y-35578571D02*
X63407142Y-36578571D01*
X63407142Y-35721429D02*
X63335714Y-35650000D01*
X63192856Y-35578571D01*
X62978571Y-35578571D01*
X62835714Y-35650000D01*
X62764285Y-35792857D01*
X62764285Y-36578571D01*
X62049999Y-36578571D02*
X62049999Y-35578571D01*
X62049999Y-35078571D02*
X62121428Y-35150000D01*
X62049999Y-35221429D01*
X61978571Y-35150000D01*
X62049999Y-35078571D01*
X62049999Y-35221429D01*
X60692856Y-36578571D02*
X60692856Y-35792857D01*
X60764285Y-35650000D01*
X60907142Y-35578571D01*
X61192856Y-35578571D01*
X61335713Y-35650000D01*
X60692856Y-36507143D02*
X60835713Y-36578571D01*
X61192856Y-36578571D01*
X61335713Y-36507143D01*
X61407142Y-36364286D01*
X61407142Y-36221429D01*
X61335713Y-36078571D01*
X61192856Y-36007143D01*
X60835713Y-36007143D01*
X60692856Y-35935714D01*
X59335713Y-36507143D02*
X59478570Y-36578571D01*
X59764284Y-36578571D01*
X59907142Y-36507143D01*
X59978570Y-36435714D01*
X60049999Y-36292857D01*
X60049999Y-35864286D01*
X59978570Y-35721429D01*
X59907142Y-35650000D01*
X59764284Y-35578571D01*
X59478570Y-35578571D01*
X59335713Y-35650000D01*
X58049999Y-36578571D02*
X58049999Y-35792857D01*
X58121428Y-35650000D01*
X58264285Y-35578571D01*
X58549999Y-35578571D01*
X58692856Y-35650000D01*
X58049999Y-36507143D02*
X58192856Y-36578571D01*
X58549999Y-36578571D01*
X58692856Y-36507143D01*
X58764285Y-36364286D01*
X58764285Y-36221429D01*
X58692856Y-36078571D01*
X58549999Y-36007143D01*
X58192856Y-36007143D01*
X58049999Y-35935714D01*
X57121427Y-36578571D02*
X57264285Y-36507143D01*
X57335713Y-36364286D01*
X57335713Y-35078571D01*
X55835713Y-36578571D02*
X56549999Y-36578571D01*
X56549999Y-35078571D01*
X54692856Y-36578571D02*
X54692856Y-35792857D01*
X54764285Y-35650000D01*
X54907142Y-35578571D01*
X55192856Y-35578571D01*
X55335713Y-35650000D01*
X54692856Y-36507143D02*
X54835713Y-36578571D01*
X55192856Y-36578571D01*
X55335713Y-36507143D01*
X55407142Y-36364286D01*
X55407142Y-36221429D01*
X55335713Y-36078571D01*
X55192856Y-36007143D01*
X54835713Y-36007143D01*
X54692856Y-35935714D01*
X53978570Y-36578571D02*
X53978570Y-35078571D01*
X53978570Y-35650000D02*
X53835713Y-35578571D01*
X53549999Y-35578571D01*
X53407142Y-35650000D01*
X53335713Y-35721429D01*
X53264284Y-35864286D01*
X53264284Y-36292857D01*
X53335713Y-36435714D01*
X53407142Y-36507143D01*
X53549999Y-36578571D01*
X53835713Y-36578571D01*
X53978570Y-36507143D01*
X52692856Y-36507143D02*
X52549999Y-36578571D01*
X52264284Y-36578571D01*
X52121427Y-36507143D01*
X52049999Y-36364286D01*
X52049999Y-36292857D01*
X52121427Y-36150000D01*
X52264284Y-36078571D01*
X52478570Y-36078571D01*
X52621427Y-36007143D01*
X52692856Y-35864286D01*
X52692856Y-35792857D01*
X52621427Y-35650000D01*
X52478570Y-35578571D01*
X52264284Y-35578571D01*
X52121427Y-35650000D01*
X51407141Y-36435714D02*
X51335713Y-36507143D01*
X51407141Y-36578571D01*
X51478570Y-36507143D01*
X51407141Y-36435714D01*
X51407141Y-36578571D01*
X50049998Y-36507143D02*
X50192855Y-36578571D01*
X50478569Y-36578571D01*
X50621427Y-36507143D01*
X50692855Y-36435714D01*
X50764284Y-36292857D01*
X50764284Y-35864286D01*
X50692855Y-35721429D01*
X50621427Y-35650000D01*
X50478569Y-35578571D01*
X50192855Y-35578571D01*
X50049998Y-35650000D01*
X49192855Y-36578571D02*
X49335713Y-36507143D01*
X49407141Y-36435714D01*
X49478570Y-36292857D01*
X49478570Y-35864286D01*
X49407141Y-35721429D01*
X49335713Y-35650000D01*
X49192855Y-35578571D01*
X48978570Y-35578571D01*
X48835713Y-35650000D01*
X48764284Y-35721429D01*
X48692855Y-35864286D01*
X48692855Y-36292857D01*
X48764284Y-36435714D01*
X48835713Y-36507143D01*
X48978570Y-36578571D01*
X49192855Y-36578571D01*
X48049998Y-36578571D02*
X48049998Y-35578571D01*
X48049998Y-35721429D02*
X47978570Y-35650000D01*
X47835712Y-35578571D01*
X47621427Y-35578571D01*
X47478570Y-35650000D01*
X47407141Y-35792857D01*
X47407141Y-36578571D01*
X47407141Y-35792857D02*
X47335712Y-35650000D01*
X47192855Y-35578571D01*
X46978570Y-35578571D01*
X46835712Y-35650000D01*
X46764284Y-35792857D01*
X46764284Y-36578571D01*
X74085714Y-37978571D02*
X73514285Y-37978571D01*
X73871428Y-38978571D02*
X73871428Y-37692857D01*
X73800000Y-37550000D01*
X73657142Y-37478571D01*
X73514285Y-37478571D01*
X72799999Y-38978571D02*
X72942857Y-38907143D01*
X73014285Y-38835714D01*
X73085714Y-38692857D01*
X73085714Y-38264286D01*
X73014285Y-38121429D01*
X72942857Y-38050000D01*
X72799999Y-37978571D01*
X72585714Y-37978571D01*
X72442857Y-38050000D01*
X72371428Y-38121429D01*
X72299999Y-38264286D01*
X72299999Y-38692857D01*
X72371428Y-38835714D01*
X72442857Y-38907143D01*
X72585714Y-38978571D01*
X72799999Y-38978571D01*
X71657142Y-38978571D02*
X71657142Y-37978571D01*
X71657142Y-38264286D02*
X71585714Y-38121429D01*
X71514285Y-38050000D01*
X71371428Y-37978571D01*
X71228571Y-37978571D01*
X69585714Y-38978571D02*
X69585714Y-37978571D01*
X69585714Y-38121429D02*
X69514286Y-38050000D01*
X69371428Y-37978571D01*
X69157143Y-37978571D01*
X69014286Y-38050000D01*
X68942857Y-38192857D01*
X68942857Y-38978571D01*
X68942857Y-38192857D02*
X68871428Y-38050000D01*
X68728571Y-37978571D01*
X68514286Y-37978571D01*
X68371428Y-38050000D01*
X68300000Y-38192857D01*
X68300000Y-38978571D01*
X67371428Y-38978571D02*
X67514286Y-38907143D01*
X67585714Y-38835714D01*
X67657143Y-38692857D01*
X67657143Y-38264286D01*
X67585714Y-38121429D01*
X67514286Y-38050000D01*
X67371428Y-37978571D01*
X67157143Y-37978571D01*
X67014286Y-38050000D01*
X66942857Y-38121429D01*
X66871428Y-38264286D01*
X66871428Y-38692857D01*
X66942857Y-38835714D01*
X67014286Y-38907143D01*
X67157143Y-38978571D01*
X67371428Y-38978571D01*
X66228571Y-38978571D02*
X66228571Y-37978571D01*
X66228571Y-38264286D02*
X66157143Y-38121429D01*
X66085714Y-38050000D01*
X65942857Y-37978571D01*
X65800000Y-37978571D01*
X64728572Y-38907143D02*
X64871429Y-38978571D01*
X65157143Y-38978571D01*
X65300000Y-38907143D01*
X65371429Y-38764286D01*
X65371429Y-38192857D01*
X65300000Y-38050000D01*
X65157143Y-37978571D01*
X64871429Y-37978571D01*
X64728572Y-38050000D01*
X64657143Y-38192857D01*
X64657143Y-38335714D01*
X65371429Y-38478571D01*
X62871429Y-38978571D02*
X62871429Y-37978571D01*
X62871429Y-37478571D02*
X62942858Y-37550000D01*
X62871429Y-37621429D01*
X62800001Y-37550000D01*
X62871429Y-37478571D01*
X62871429Y-37621429D01*
X62157143Y-37978571D02*
X62157143Y-38978571D01*
X62157143Y-38121429D02*
X62085715Y-38050000D01*
X61942857Y-37978571D01*
X61728572Y-37978571D01*
X61585715Y-38050000D01*
X61514286Y-38192857D01*
X61514286Y-38978571D01*
X61014286Y-37978571D02*
X60442857Y-37978571D01*
X60800000Y-38978571D02*
X60800000Y-37692857D01*
X60728572Y-37550000D01*
X60585714Y-37478571D01*
X60442857Y-37478571D01*
X59728571Y-38978571D02*
X59871429Y-38907143D01*
X59942857Y-38835714D01*
X60014286Y-38692857D01*
X60014286Y-38264286D01*
X59942857Y-38121429D01*
X59871429Y-38050000D01*
X59728571Y-37978571D01*
X59514286Y-37978571D01*
X59371429Y-38050000D01*
X59300000Y-38121429D01*
X59228571Y-38264286D01*
X59228571Y-38692857D01*
X59300000Y-38835714D01*
X59371429Y-38907143D01*
X59514286Y-38978571D01*
X59728571Y-38978571D01*
X58585714Y-38978571D02*
X58585714Y-37978571D01*
X58585714Y-38264286D02*
X58514286Y-38121429D01*
X58442857Y-38050000D01*
X58300000Y-37978571D01*
X58157143Y-37978571D01*
X57657143Y-38978571D02*
X57657143Y-37978571D01*
X57657143Y-38121429D02*
X57585715Y-38050000D01*
X57442857Y-37978571D01*
X57228572Y-37978571D01*
X57085715Y-38050000D01*
X57014286Y-38192857D01*
X57014286Y-38978571D01*
X57014286Y-38192857D02*
X56942857Y-38050000D01*
X56800000Y-37978571D01*
X56585715Y-37978571D01*
X56442857Y-38050000D01*
X56371429Y-38192857D01*
X56371429Y-38978571D01*
X55014286Y-38978571D02*
X55014286Y-38192857D01*
X55085715Y-38050000D01*
X55228572Y-37978571D01*
X55514286Y-37978571D01*
X55657143Y-38050000D01*
X55014286Y-38907143D02*
X55157143Y-38978571D01*
X55514286Y-38978571D01*
X55657143Y-38907143D01*
X55728572Y-38764286D01*
X55728572Y-38621429D01*
X55657143Y-38478571D01*
X55514286Y-38407143D01*
X55157143Y-38407143D01*
X55014286Y-38335714D01*
X54514286Y-37978571D02*
X53942857Y-37978571D01*
X54300000Y-37478571D02*
X54300000Y-38764286D01*
X54228572Y-38907143D01*
X54085714Y-38978571D01*
X53942857Y-38978571D01*
X53442857Y-38978571D02*
X53442857Y-37978571D01*
X53442857Y-37478571D02*
X53514286Y-37550000D01*
X53442857Y-37621429D01*
X53371429Y-37550000D01*
X53442857Y-37478571D01*
X53442857Y-37621429D01*
X52514285Y-38978571D02*
X52657143Y-38907143D01*
X52728571Y-38835714D01*
X52800000Y-38692857D01*
X52800000Y-38264286D01*
X52728571Y-38121429D01*
X52657143Y-38050000D01*
X52514285Y-37978571D01*
X52300000Y-37978571D01*
X52157143Y-38050000D01*
X52085714Y-38121429D01*
X52014285Y-38264286D01*
X52014285Y-38692857D01*
X52085714Y-38835714D01*
X52157143Y-38907143D01*
X52300000Y-38978571D01*
X52514285Y-38978571D01*
X51371428Y-37978571D02*
X51371428Y-38978571D01*
X51371428Y-38121429D02*
X51300000Y-38050000D01*
X51157142Y-37978571D01*
X50942857Y-37978571D01*
X50800000Y-38050000D01*
X50728571Y-38192857D01*
X50728571Y-38978571D01*
X39550000Y-29957143D02*
X39621429Y-30100000D01*
X39621429Y-30314286D01*
X39550000Y-30528571D01*
X39407143Y-30671429D01*
X39264286Y-30742857D01*
X38978571Y-30814286D01*
X38764286Y-30814286D01*
X38478571Y-30742857D01*
X38335714Y-30671429D01*
X38192857Y-30528571D01*
X38121429Y-30314286D01*
X38121429Y-30171429D01*
X38192857Y-29957143D01*
X38264286Y-29885714D01*
X38764286Y-29885714D01*
X38764286Y-30171429D01*
X38121429Y-29242857D02*
X39621429Y-29242857D01*
X38121429Y-28385714D01*
X39621429Y-28385714D01*
X38121429Y-27671428D02*
X39621429Y-27671428D01*
X39621429Y-27314285D01*
X39550000Y-27100000D01*
X39407143Y-26957142D01*
X39264286Y-26885714D01*
X38978571Y-26814285D01*
X38764286Y-26814285D01*
X38478571Y-26885714D01*
X38335714Y-26957142D01*
X38192857Y-27100000D01*
X38121429Y-27314285D01*
X38121429Y-27671428D01*
X39621429Y-24100000D02*
X38121429Y-23600000D01*
X39621429Y-23100000D01*
X38692857Y-22600000D02*
X38692857Y-21457143D01*
X38121429Y-22028572D02*
X39264286Y-22028572D01*
X85107143Y-39107142D02*
X85035714Y-38892856D01*
X84964286Y-38821428D01*
X84821429Y-38749999D01*
X84607143Y-38749999D01*
X84464286Y-38821428D01*
X84392857Y-38892856D01*
X84321429Y-39035714D01*
X84321429Y-39607142D01*
X85821429Y-39607142D01*
X85821429Y-39107142D01*
X85750000Y-38964285D01*
X85678571Y-38892856D01*
X85535714Y-38821428D01*
X85392857Y-38821428D01*
X85250000Y-38892856D01*
X85178571Y-38964285D01*
X85107143Y-39107142D01*
X85107143Y-39607142D01*
X85750000Y-33892857D02*
X85821429Y-34035714D01*
X85821429Y-34250000D01*
X85750000Y-34464285D01*
X85607143Y-34607143D01*
X85464286Y-34678571D01*
X85178571Y-34750000D01*
X84964286Y-34750000D01*
X84678571Y-34678571D01*
X84535714Y-34607143D01*
X84392857Y-34464285D01*
X84321429Y-34250000D01*
X84321429Y-34107143D01*
X84392857Y-33892857D01*
X84464286Y-33821428D01*
X84964286Y-33821428D01*
X84964286Y-34107143D01*
X84321429Y-28892857D02*
X85035714Y-29392857D01*
X84321429Y-29750000D02*
X85821429Y-29750000D01*
X85821429Y-29178572D01*
X85750000Y-29035714D01*
X85678571Y-28964286D01*
X85535714Y-28892857D01*
X85321429Y-28892857D01*
X85178571Y-28964286D01*
X85107143Y-29035714D01*
X85035714Y-29178572D01*
X85035714Y-29750000D01*
X85821429Y-25035715D02*
X84321429Y-24535715D01*
X85821429Y-24035715D01*
X84892857Y-23535715D02*
X84892857Y-22392858D01*
X84321429Y-22964287D02*
X85464286Y-22964287D01*
D12*
X62428571Y-40600000D02*
X62523809Y-40552381D01*
X62666666Y-40552381D01*
X62809524Y-40600000D01*
X62904762Y-40695238D01*
X62952381Y-40790476D01*
X63000000Y-40980952D01*
X63000000Y-41123810D01*
X62952381Y-41314286D01*
X62904762Y-41409524D01*
X62809524Y-41504762D01*
X62666666Y-41552381D01*
X62571428Y-41552381D01*
X62428571Y-41504762D01*
X62380952Y-41457143D01*
X62380952Y-41123810D01*
X62571428Y-41123810D01*
X61952381Y-41552381D02*
X61952381Y-40552381D01*
X61380952Y-41552381D01*
X61380952Y-40552381D01*
X60904762Y-41552381D02*
X60904762Y-40552381D01*
X60666667Y-40552381D01*
X60523809Y-40600000D01*
X60428571Y-40695238D01*
X60380952Y-40790476D01*
X60333333Y-40980952D01*
X60333333Y-41123810D01*
X60380952Y-41314286D01*
X60428571Y-41409524D01*
X60523809Y-41504762D01*
X60666667Y-41552381D01*
X60904762Y-41552381D01*
X58571428Y-41457143D02*
X58619047Y-41504762D01*
X58761904Y-41552381D01*
X58857142Y-41552381D01*
X59000000Y-41504762D01*
X59095238Y-41409524D01*
X59142857Y-41314286D01*
X59190476Y-41123810D01*
X59190476Y-40980952D01*
X59142857Y-40790476D01*
X59095238Y-40695238D01*
X59000000Y-40600000D01*
X58857142Y-40552381D01*
X58761904Y-40552381D01*
X58619047Y-40600000D01*
X58571428Y-40647619D01*
X58000000Y-41552381D02*
X58095238Y-41504762D01*
X58142857Y-41457143D01*
X58190476Y-41361905D01*
X58190476Y-41076190D01*
X58142857Y-40980952D01*
X58095238Y-40933333D01*
X58000000Y-40885714D01*
X57857142Y-40885714D01*
X57761904Y-40933333D01*
X57714285Y-40980952D01*
X57666666Y-41076190D01*
X57666666Y-41361905D01*
X57714285Y-41457143D01*
X57761904Y-41504762D01*
X57857142Y-41552381D01*
X58000000Y-41552381D01*
X56476190Y-41552381D02*
X56476190Y-40552381D01*
X56238095Y-40552381D01*
X56095237Y-40600000D01*
X55999999Y-40695238D01*
X55952380Y-40790476D01*
X55904761Y-40980952D01*
X55904761Y-41123810D01*
X55952380Y-41314286D01*
X55999999Y-41409524D01*
X56095237Y-41504762D01*
X56238095Y-41552381D01*
X56476190Y-41552381D01*
X55333333Y-41552381D02*
X55428571Y-41504762D01*
X55476190Y-41457143D01*
X55523809Y-41361905D01*
X55523809Y-41076190D01*
X55476190Y-40980952D01*
X55428571Y-40933333D01*
X55333333Y-40885714D01*
X55190475Y-40885714D01*
X55095237Y-40933333D01*
X55047618Y-40980952D01*
X54999999Y-41076190D01*
X54999999Y-41361905D01*
X55047618Y-41457143D01*
X55095237Y-41504762D01*
X55190475Y-41552381D01*
X55333333Y-41552381D01*
X62099999Y-18800000D02*
X62195237Y-18752381D01*
X62338094Y-18752381D01*
X62480952Y-18800000D01*
X62576190Y-18895238D01*
X62623809Y-18990476D01*
X62671428Y-19180952D01*
X62671428Y-19323810D01*
X62623809Y-19514286D01*
X62576190Y-19609524D01*
X62480952Y-19704762D01*
X62338094Y-19752381D01*
X62242856Y-19752381D01*
X62099999Y-19704762D01*
X62052380Y-19657143D01*
X62052380Y-19323810D01*
X62242856Y-19323810D01*
X61623809Y-19752381D02*
X61623809Y-18752381D01*
X61052380Y-19752381D01*
X61052380Y-18752381D01*
X60576190Y-19752381D02*
X60576190Y-18752381D01*
X60338095Y-18752381D01*
X60195237Y-18800000D01*
X60099999Y-18895238D01*
X60052380Y-18990476D01*
X60004761Y-19180952D01*
X60004761Y-19323810D01*
X60052380Y-19514286D01*
X60099999Y-19609524D01*
X60195237Y-19704762D01*
X60338095Y-19752381D01*
X60576190Y-19752381D01*
X58242856Y-19657143D02*
X58290475Y-19704762D01*
X58433332Y-19752381D01*
X58528570Y-19752381D01*
X58671428Y-19704762D01*
X58766666Y-19609524D01*
X58814285Y-19514286D01*
X58861904Y-19323810D01*
X58861904Y-19180952D01*
X58814285Y-18990476D01*
X58766666Y-18895238D01*
X58671428Y-18800000D01*
X58528570Y-18752381D01*
X58433332Y-18752381D01*
X58290475Y-18800000D01*
X58242856Y-18847619D01*
X57814285Y-19752381D02*
X57814285Y-19085714D01*
X57814285Y-18752381D02*
X57861904Y-18800000D01*
X57814285Y-18847619D01*
X57766666Y-18800000D01*
X57814285Y-18752381D01*
X57814285Y-18847619D01*
X56576190Y-19752381D02*
X56576190Y-18752381D01*
X56338095Y-18752381D01*
X56195237Y-18800000D01*
X56099999Y-18895238D01*
X56052380Y-18990476D01*
X56004761Y-19180952D01*
X56004761Y-19323810D01*
X56052380Y-19514286D01*
X56099999Y-19609524D01*
X56195237Y-19704762D01*
X56338095Y-19752381D01*
X56576190Y-19752381D01*
X55576190Y-19752381D02*
X55576190Y-19085714D01*
X55576190Y-18752381D02*
X55623809Y-18800000D01*
X55576190Y-18847619D01*
X55528571Y-18800000D01*
X55576190Y-18752381D01*
X55576190Y-18847619D01*
D13*
G36*
X43623507Y-31920590D02*
X44256648Y-31938594D01*
X44689962Y-31976359D01*
X44950482Y-32040233D01*
X45065247Y-32136564D01*
X45061293Y-32271700D01*
X44976194Y-32435516D01*
X44936874Y-32619627D01*
X44903219Y-33009150D01*
X44877835Y-33555517D01*
X44863330Y-34210157D01*
X44860944Y-34583295D01*
X44858999Y-36552090D01*
X46065499Y-38633687D01*
X46443587Y-39293344D01*
X46772908Y-39881940D01*
X47033583Y-40362784D01*
X47205735Y-40699187D01*
X47269483Y-40854460D01*
X47269513Y-40855892D01*
X47207976Y-41027538D01*
X47047801Y-41351089D01*
X46821729Y-41761067D01*
X46786470Y-41822000D01*
X46305913Y-42647500D01*
X42805649Y-42681228D01*
X41711844Y-42689115D01*
X40848566Y-42688779D01*
X40192450Y-42679401D01*
X39720131Y-42660161D01*
X39408243Y-42630243D01*
X39233423Y-42588826D01*
X39181335Y-42554228D01*
X39022824Y-42316218D01*
X38815050Y-41963372D01*
X38596581Y-41567042D01*
X38405983Y-41198577D01*
X38281821Y-40929329D01*
X38262996Y-40866933D01*
X39040673Y-40866933D01*
X39159789Y-41197278D01*
X39339853Y-41525092D01*
X39662707Y-42076000D01*
X45864292Y-42076000D01*
X46187146Y-41525092D01*
X46374475Y-41178083D01*
X46490971Y-40909625D01*
X46510000Y-40827739D01*
X46449022Y-40676340D01*
X46279333Y-40342686D01*
X46020803Y-39863573D01*
X45693300Y-39275796D01*
X45316691Y-38616153D01*
X45303500Y-38593314D01*
X44096999Y-36505333D01*
X44097000Y-34528166D01*
X44097000Y-32551000D01*
X41430000Y-32551000D01*
X41430000Y-36501381D01*
X40650751Y-37859940D01*
X40347388Y-38388949D01*
X40090061Y-38837904D01*
X39905133Y-39160794D01*
X39818965Y-39311611D01*
X39817756Y-39313750D01*
X39910111Y-39356017D01*
X40202619Y-39388659D01*
X40641479Y-39406832D01*
X40875918Y-39409000D01*
X41987826Y-39408999D01*
X41589605Y-38996250D01*
X41343676Y-38704915D01*
X41273346Y-38498086D01*
X41317003Y-38361250D01*
X41453299Y-38185198D01*
X41610133Y-38173236D01*
X41839695Y-38338385D01*
X42049930Y-38544109D01*
X42445999Y-38949218D01*
X42446000Y-38353609D01*
X42457950Y-37991629D01*
X42517558Y-37816521D01*
X42660456Y-37761438D01*
X42763500Y-37758000D01*
X42956363Y-37780379D01*
X43049723Y-37892052D01*
X43079144Y-38159825D01*
X43081000Y-38354413D01*
X43081000Y-38950826D01*
X43526668Y-38518867D01*
X43800048Y-38267293D01*
X43967213Y-38175481D01*
X44098343Y-38220436D01*
X44187714Y-38302285D01*
X44302898Y-38445191D01*
X44294947Y-38582521D01*
X44140868Y-38784458D01*
X43971132Y-38963331D01*
X43539173Y-39409000D01*
X44135586Y-39409000D01*
X44497874Y-39420913D01*
X44673248Y-39480362D01*
X44728514Y-39622911D01*
X44732000Y-39726500D01*
X44709580Y-39919459D01*
X44597760Y-40012804D01*
X44329693Y-40042166D01*
X44136390Y-40044000D01*
X43540781Y-40043999D01*
X43949098Y-40443205D01*
X44193561Y-40696715D01*
X44274240Y-40855338D01*
X44214328Y-40996106D01*
X44141210Y-41081314D01*
X43997797Y-41217109D01*
X43869096Y-41223107D01*
X43680033Y-41079978D01*
X43511137Y-40919079D01*
X43097268Y-40517941D01*
X43057384Y-41074720D01*
X43011449Y-41429564D01*
X42918885Y-41594005D01*
X42763500Y-41631500D01*
X42593921Y-41581463D01*
X42496841Y-41390217D01*
X42446000Y-41081860D01*
X42382500Y-40532221D01*
X42010423Y-40922136D01*
X41767868Y-41159404D01*
X41614000Y-41229835D01*
X41469169Y-41156797D01*
X41404064Y-41100028D01*
X41272721Y-40959343D01*
X41269515Y-40829932D01*
X41414642Y-40638511D01*
X41578804Y-40466003D01*
X41987826Y-40044000D01*
X40700114Y-40044000D01*
X40110163Y-40048324D01*
X39720556Y-40068086D01*
X39477693Y-40113472D01*
X39327973Y-40194666D01*
X39217795Y-40321855D01*
X39214701Y-40326258D01*
X39061706Y-40602728D01*
X39040673Y-40866933D01*
X38262996Y-40866933D01*
X38255000Y-40840433D01*
X38316013Y-40695955D01*
X38485796Y-40368844D01*
X38744461Y-39895472D01*
X39072124Y-39312212D01*
X39448897Y-38655438D01*
X39461500Y-38633687D01*
X40668000Y-36552090D01*
X40666055Y-34583295D01*
X40658350Y-33891052D01*
X40638390Y-33281417D01*
X40608781Y-32802959D01*
X40572130Y-32504247D01*
X40550805Y-32435516D01*
X40461602Y-32259130D01*
X40466277Y-32127382D01*
X40591867Y-32033923D01*
X40865407Y-31972405D01*
X41313934Y-31936481D01*
X41964485Y-31919803D01*
X42763500Y-31916000D01*
X43623507Y-31920590D01*
X43623507Y-31920590D01*
G37*
X43623507Y-31920590D02*
X44256648Y-31938594D01*
X44689962Y-31976359D01*
X44950482Y-32040233D01*
X45065247Y-32136564D01*
X45061293Y-32271700D01*
X44976194Y-32435516D01*
X44936874Y-32619627D01*
X44903219Y-33009150D01*
X44877835Y-33555517D01*
X44863330Y-34210157D01*
X44860944Y-34583295D01*
X44858999Y-36552090D01*
X46065499Y-38633687D01*
X46443587Y-39293344D01*
X46772908Y-39881940D01*
X47033583Y-40362784D01*
X47205735Y-40699187D01*
X47269483Y-40854460D01*
X47269513Y-40855892D01*
X47207976Y-41027538D01*
X47047801Y-41351089D01*
X46821729Y-41761067D01*
X46786470Y-41822000D01*
X46305913Y-42647500D01*
X42805649Y-42681228D01*
X41711844Y-42689115D01*
X40848566Y-42688779D01*
X40192450Y-42679401D01*
X39720131Y-42660161D01*
X39408243Y-42630243D01*
X39233423Y-42588826D01*
X39181335Y-42554228D01*
X39022824Y-42316218D01*
X38815050Y-41963372D01*
X38596581Y-41567042D01*
X38405983Y-41198577D01*
X38281821Y-40929329D01*
X38262996Y-40866933D01*
X39040673Y-40866933D01*
X39159789Y-41197278D01*
X39339853Y-41525092D01*
X39662707Y-42076000D01*
X45864292Y-42076000D01*
X46187146Y-41525092D01*
X46374475Y-41178083D01*
X46490971Y-40909625D01*
X46510000Y-40827739D01*
X46449022Y-40676340D01*
X46279333Y-40342686D01*
X46020803Y-39863573D01*
X45693300Y-39275796D01*
X45316691Y-38616153D01*
X45303500Y-38593314D01*
X44096999Y-36505333D01*
X44097000Y-34528166D01*
X44097000Y-32551000D01*
X41430000Y-32551000D01*
X41430000Y-36501381D01*
X40650751Y-37859940D01*
X40347388Y-38388949D01*
X40090061Y-38837904D01*
X39905133Y-39160794D01*
X39818965Y-39311611D01*
X39817756Y-39313750D01*
X39910111Y-39356017D01*
X40202619Y-39388659D01*
X40641479Y-39406832D01*
X40875918Y-39409000D01*
X41987826Y-39408999D01*
X41589605Y-38996250D01*
X41343676Y-38704915D01*
X41273346Y-38498086D01*
X41317003Y-38361250D01*
X41453299Y-38185198D01*
X41610133Y-38173236D01*
X41839695Y-38338385D01*
X42049930Y-38544109D01*
X42445999Y-38949218D01*
X42446000Y-38353609D01*
X42457950Y-37991629D01*
X42517558Y-37816521D01*
X42660456Y-37761438D01*
X42763500Y-37758000D01*
X42956363Y-37780379D01*
X43049723Y-37892052D01*
X43079144Y-38159825D01*
X43081000Y-38354413D01*
X43081000Y-38950826D01*
X43526668Y-38518867D01*
X43800048Y-38267293D01*
X43967213Y-38175481D01*
X44098343Y-38220436D01*
X44187714Y-38302285D01*
X44302898Y-38445191D01*
X44294947Y-38582521D01*
X44140868Y-38784458D01*
X43971132Y-38963331D01*
X43539173Y-39409000D01*
X44135586Y-39409000D01*
X44497874Y-39420913D01*
X44673248Y-39480362D01*
X44728514Y-39622911D01*
X44732000Y-39726500D01*
X44709580Y-39919459D01*
X44597760Y-40012804D01*
X44329693Y-40042166D01*
X44136390Y-40044000D01*
X43540781Y-40043999D01*
X43949098Y-40443205D01*
X44193561Y-40696715D01*
X44274240Y-40855338D01*
X44214328Y-40996106D01*
X44141210Y-41081314D01*
X43997797Y-41217109D01*
X43869096Y-41223107D01*
X43680033Y-41079978D01*
X43511137Y-40919079D01*
X43097268Y-40517941D01*
X43057384Y-41074720D01*
X43011449Y-41429564D01*
X42918885Y-41594005D01*
X42763500Y-41631500D01*
X42593921Y-41581463D01*
X42496841Y-41390217D01*
X42446000Y-41081860D01*
X42382500Y-40532221D01*
X42010423Y-40922136D01*
X41767868Y-41159404D01*
X41614000Y-41229835D01*
X41469169Y-41156797D01*
X41404064Y-41100028D01*
X41272721Y-40959343D01*
X41269515Y-40829932D01*
X41414642Y-40638511D01*
X41578804Y-40466003D01*
X41987826Y-40044000D01*
X40700114Y-40044000D01*
X40110163Y-40048324D01*
X39720556Y-40068086D01*
X39477693Y-40113472D01*
X39327973Y-40194666D01*
X39217795Y-40321855D01*
X39214701Y-40326258D01*
X39061706Y-40602728D01*
X39040673Y-40866933D01*
X38262996Y-40866933D01*
X38255000Y-40840433D01*
X38316013Y-40695955D01*
X38485796Y-40368844D01*
X38744461Y-39895472D01*
X39072124Y-39312212D01*
X39448897Y-38655438D01*
X39461500Y-38633687D01*
X40668000Y-36552090D01*
X40666055Y-34583295D01*
X40658350Y-33891052D01*
X40638390Y-33281417D01*
X40608781Y-32802959D01*
X40572130Y-32504247D01*
X40550805Y-32435516D01*
X40461602Y-32259130D01*
X40466277Y-32127382D01*
X40591867Y-32033923D01*
X40865407Y-31972405D01*
X41313934Y-31936481D01*
X41964485Y-31919803D01*
X42763500Y-31916000D01*
X43623507Y-31920590D01*
M02*
