M48
;DRILL file {KiCad 4.0.1-stable} date 2/17/2016 5:57:29 PM
;FORMAT={-:-/ absolute / inch / decimal}
FMAT,2
INCH,TZ
T1C0.016
T2C0.040
T3C0.051
T4C0.070
%
G90
G05
M72
T1
X1.9488Y-1.1417
X2.0965Y-1.1516
X2.1949Y-1.1516
X2.3268Y-1.2992
X2.3858Y-1.2992
X2.5Y-1.2008
X2.5689Y-1.2106
X2.6181Y-1.2402
X2.815Y-1.3091
X2.815Y-1.3484
X2.815Y-1.6142
X2.815Y-1.6535
X2.8248Y-1.0531
X2.8248Y-1.0925
X2.8543Y-1.3091
X2.8543Y-1.3484
X2.8543Y-1.6142
X2.8543Y-1.6535
X2.8642Y-1.0531
X2.8642Y-1.0925
X2.8937Y-1.3091
X2.8937Y-1.3484
X2.8937Y-1.6142
X2.8937Y-1.6535
X2.9035Y-1.0531
X2.9035Y-1.0925
T2
X2.2213Y-0.8563
X2.2213Y-1.7087
X2.3213Y-0.8563
X2.3213Y-1.7087
X2.4213Y-0.8563
X2.4213Y-1.7087
T3
X1.6535Y-1.1319
T4
X1.6535Y-0.9351
X1.6535Y-1.1319
X3.2382Y-0.9402
X3.2382Y-1.1402
X3.2382Y-1.3402
X3.2382Y-1.5402
T0
M30
