G04 #@! TF.FileFunction,Soldermask,Top*
%FSLAX46Y46*%
G04 Gerber Fmt 4.6, Leading zero omitted, Abs format (unit mm)*
G04 Created by KiCad (PCBNEW 4.0.1-stable) date 2/17/2016 5:57:31 PM*
%MOMM*%
G01*
G04 APERTURE LIST*
%ADD10C,0.100000*%
%ADD11R,1.597660X1.798320*%
%ADD12R,1.798320X1.597660*%
%ADD13R,1.600200X3.599180*%
%ADD14C,2.790000*%
%ADD15R,1.727200X2.032000*%
%ADD16O,1.727200X2.032000*%
%ADD17C,2.794000*%
%ADD18R,0.700000X1.300000*%
%ADD19R,1.143000X0.508000*%
%ADD20R,3.048000X1.651000*%
%ADD21R,6.096000X6.096000*%
%ADD22R,2.032000X3.657600*%
%ADD23R,2.032000X1.016000*%
G04 APERTURE END LIST*
D10*
D11*
X49100460Y-39000000D03*
X51899540Y-39000000D03*
D12*
X52250000Y-33850460D03*
X52250000Y-36649540D03*
D11*
X60399540Y-27750000D03*
X57600460Y-27750000D03*
D13*
X51250000Y-23499180D03*
X51250000Y-29000820D03*
D14*
X42000000Y-23751280D03*
X42000000Y-28750000D03*
D15*
X61500000Y-21750000D03*
D16*
X58960000Y-21750000D03*
X56420000Y-21750000D03*
D15*
X61500000Y-43400000D03*
D16*
X58960000Y-43400000D03*
X56420000Y-43400000D03*
D17*
X82250000Y-39120000D03*
X82250000Y-34040000D03*
X82250000Y-23880000D03*
X82250000Y-28960000D03*
D18*
X65800000Y-37000000D03*
X67700000Y-37000000D03*
X65800000Y-29250000D03*
X67700000Y-29250000D03*
X65800000Y-21500000D03*
X67700000Y-21500000D03*
D19*
X55698000Y-30440000D03*
X55698000Y-31710000D03*
X55698000Y-32980000D03*
X55698000Y-34250000D03*
X55698000Y-35520000D03*
X55698000Y-36790000D03*
X55698000Y-38060000D03*
X62048000Y-38060000D03*
X62048000Y-36790000D03*
X62048000Y-34250000D03*
X62048000Y-32980000D03*
X62048000Y-31710000D03*
X62048000Y-30440000D03*
X62048000Y-35520000D03*
D20*
X49250000Y-41286000D03*
D21*
X42900000Y-39000000D03*
D20*
X49250000Y-36714000D03*
D22*
X76302000Y-39250000D03*
D23*
X69698000Y-39250000D03*
X69698000Y-41536000D03*
X69698000Y-36964000D03*
D22*
X76302000Y-31500000D03*
D23*
X69698000Y-31500000D03*
X69698000Y-33786000D03*
X69698000Y-29214000D03*
D22*
X76302000Y-23750000D03*
D23*
X69698000Y-23750000D03*
X69698000Y-26036000D03*
X69698000Y-21464000D03*
D11*
X57600460Y-25250000D03*
X60399540Y-25250000D03*
D18*
X62450000Y-40600000D03*
X60550000Y-40600000D03*
X57550000Y-40600000D03*
X55650000Y-40600000D03*
M02*
