G04 #@! TF.FileFunction,Legend,Top*
%FSLAX46Y46*%
G04 Gerber Fmt 4.6, Leading zero omitted, Abs format (unit mm)*
G04 Created by KiCad (PCBNEW 4.0.1-stable) date 2/17/2016 5:57:31 PM*
%MOMM*%
G01*
G04 APERTURE LIST*
%ADD10C,0.100000*%
%ADD11C,0.125000*%
%ADD12C,0.200000*%
%ADD13C,0.066040*%
%ADD14C,0.050800*%
%ADD15C,0.101600*%
%ADD16C,0.150000*%
%ADD17C,0.203200*%
%ADD18C,0.063500*%
%ADD19C,0.127000*%
%ADD20C,0.381000*%
%ADD21C,0.088900*%
%ADD22C,0.076200*%
G04 APERTURE END LIST*
D10*
X56128573Y-19871429D02*
X56128573Y-19271429D01*
X56342858Y-19271429D01*
X56471430Y-19300000D01*
X56557144Y-19357143D01*
X56600001Y-19414286D01*
X56642858Y-19528571D01*
X56642858Y-19614286D01*
X56600001Y-19728571D01*
X56557144Y-19785714D01*
X56471430Y-19842857D01*
X56342858Y-19871429D01*
X56128573Y-19871429D01*
X57028573Y-19871429D02*
X57028573Y-19471429D01*
X57028573Y-19271429D02*
X56985716Y-19300000D01*
X57028573Y-19328571D01*
X57071430Y-19300000D01*
X57028573Y-19271429D01*
X57028573Y-19328571D01*
X58657143Y-19814286D02*
X58614286Y-19842857D01*
X58485715Y-19871429D01*
X58400001Y-19871429D01*
X58271429Y-19842857D01*
X58185715Y-19785714D01*
X58142858Y-19728571D01*
X58100001Y-19614286D01*
X58100001Y-19528571D01*
X58142858Y-19414286D01*
X58185715Y-19357143D01*
X58271429Y-19300000D01*
X58400001Y-19271429D01*
X58485715Y-19271429D01*
X58614286Y-19300000D01*
X58657143Y-19328571D01*
X59042858Y-19871429D02*
X59042858Y-19471429D01*
X59042858Y-19271429D02*
X59000001Y-19300000D01*
X59042858Y-19328571D01*
X59085715Y-19300000D01*
X59042858Y-19271429D01*
X59042858Y-19328571D01*
X60628571Y-19300000D02*
X60542857Y-19271429D01*
X60414286Y-19271429D01*
X60285714Y-19300000D01*
X60200000Y-19357143D01*
X60157143Y-19414286D01*
X60114286Y-19528571D01*
X60114286Y-19614286D01*
X60157143Y-19728571D01*
X60200000Y-19785714D01*
X60285714Y-19842857D01*
X60414286Y-19871429D01*
X60500000Y-19871429D01*
X60628571Y-19842857D01*
X60671428Y-19814286D01*
X60671428Y-19614286D01*
X60500000Y-19614286D01*
X61057143Y-19871429D02*
X61057143Y-19271429D01*
X61571428Y-19871429D01*
X61571428Y-19271429D01*
X62000000Y-19871429D02*
X62000000Y-19271429D01*
X62214285Y-19271429D01*
X62342857Y-19300000D01*
X62428571Y-19357143D01*
X62471428Y-19414286D01*
X62514285Y-19528571D01*
X62514285Y-19614286D01*
X62471428Y-19728571D01*
X62428571Y-19785714D01*
X62342857Y-19842857D01*
X62214285Y-19871429D01*
X62000000Y-19871429D01*
X64700000Y-44900000D02*
X64700000Y-39500000D01*
X67000000Y-44900000D02*
X64700000Y-44900000D01*
X67000000Y-39500000D02*
X67000000Y-44900000D01*
X64700000Y-39500000D02*
X67000000Y-39500000D01*
X65042857Y-39931905D02*
X65342857Y-40731905D01*
X65642857Y-39931905D01*
X65942858Y-40427143D02*
X66628572Y-40427143D01*
X66285715Y-40731905D02*
X66285715Y-40122381D01*
X66178571Y-41951905D02*
X65878571Y-41570952D01*
X65664286Y-41951905D02*
X65664286Y-41151905D01*
X66007143Y-41151905D01*
X66092857Y-41190000D01*
X66135714Y-41228095D01*
X66178571Y-41304286D01*
X66178571Y-41418571D01*
X66135714Y-41494762D01*
X66092857Y-41532857D01*
X66007143Y-41570952D01*
X65664286Y-41570952D01*
X66135714Y-42410000D02*
X66050000Y-42371905D01*
X65921429Y-42371905D01*
X65792857Y-42410000D01*
X65707143Y-42486190D01*
X65664286Y-42562381D01*
X65621429Y-42714762D01*
X65621429Y-42829048D01*
X65664286Y-42981429D01*
X65707143Y-43057619D01*
X65792857Y-43133810D01*
X65921429Y-43171905D01*
X66007143Y-43171905D01*
X66135714Y-43133810D01*
X66178571Y-43095714D01*
X66178571Y-42829048D01*
X66007143Y-42829048D01*
X65964286Y-43972857D02*
X66092857Y-44010952D01*
X66135714Y-44049048D01*
X66178571Y-44125238D01*
X66178571Y-44239524D01*
X66135714Y-44315714D01*
X66092857Y-44353810D01*
X66007143Y-44391905D01*
X65664286Y-44391905D01*
X65664286Y-43591905D01*
X65964286Y-43591905D01*
X66050000Y-43630000D01*
X66092857Y-43668095D01*
X66135714Y-43744286D01*
X66135714Y-43820476D01*
X66092857Y-43896667D01*
X66050000Y-43934762D01*
X65964286Y-43972857D01*
X65664286Y-43972857D01*
D11*
X39114286Y-32450000D02*
X39028572Y-32407143D01*
X38900001Y-32407143D01*
X38771429Y-32450000D01*
X38685715Y-32535714D01*
X38642858Y-32621429D01*
X38600001Y-32792857D01*
X38600001Y-32921429D01*
X38642858Y-33092857D01*
X38685715Y-33178571D01*
X38771429Y-33264286D01*
X38900001Y-33307143D01*
X38985715Y-33307143D01*
X39114286Y-33264286D01*
X39157143Y-33221429D01*
X39157143Y-32921429D01*
X38985715Y-32921429D01*
X39542858Y-33307143D02*
X39542858Y-32407143D01*
X40057143Y-33307143D01*
X40057143Y-32407143D01*
X40485715Y-33307143D02*
X40485715Y-32407143D01*
X40700000Y-32407143D01*
X40828572Y-32450000D01*
X40914286Y-32535714D01*
X40957143Y-32621429D01*
X41000000Y-32792857D01*
X41000000Y-32921429D01*
X40957143Y-33092857D01*
X40914286Y-33178571D01*
X40828572Y-33264286D01*
X40700000Y-33307143D01*
X40485715Y-33307143D01*
X39442856Y-19107143D02*
X39742856Y-20007143D01*
X40042856Y-19107143D01*
X40342857Y-19664286D02*
X41028571Y-19664286D01*
X40685714Y-20007143D02*
X40685714Y-19321429D01*
X42400000Y-20350000D02*
X42357142Y-20307143D01*
X42271428Y-20178571D01*
X42228571Y-20092857D01*
X42185714Y-19964286D01*
X42142857Y-19750000D01*
X42142857Y-19578571D01*
X42185714Y-19364286D01*
X42228571Y-19235714D01*
X42271428Y-19150000D01*
X42357142Y-19021429D01*
X42400000Y-18978571D01*
X43214285Y-20007143D02*
X42700000Y-20007143D01*
X42957142Y-20007143D02*
X42957142Y-19107143D01*
X42871428Y-19235714D01*
X42785714Y-19321429D01*
X42700000Y-19364286D01*
X43557143Y-19192857D02*
X43600000Y-19150000D01*
X43685714Y-19107143D01*
X43900000Y-19107143D01*
X43985714Y-19150000D01*
X44028571Y-19192857D01*
X44071428Y-19278571D01*
X44071428Y-19364286D01*
X44028571Y-19492857D01*
X43514285Y-20007143D01*
X44071428Y-20007143D01*
X44457143Y-19664286D02*
X45142857Y-19664286D01*
X45528572Y-19192857D02*
X45571429Y-19150000D01*
X45657143Y-19107143D01*
X45871429Y-19107143D01*
X45957143Y-19150000D01*
X46000000Y-19192857D01*
X46042857Y-19278571D01*
X46042857Y-19364286D01*
X46000000Y-19492857D01*
X45485714Y-20007143D01*
X46042857Y-20007143D01*
X46814286Y-19407143D02*
X46814286Y-20007143D01*
X46600000Y-19064286D02*
X46385715Y-19707143D01*
X46942857Y-19707143D01*
X47157143Y-19107143D02*
X47457143Y-20007143D01*
X47757143Y-19107143D01*
X47971429Y-20350000D02*
X48014287Y-20307143D01*
X48100001Y-20178571D01*
X48142858Y-20092857D01*
X48185715Y-19964286D01*
X48228572Y-19750000D01*
X48228572Y-19578571D01*
X48185715Y-19364286D01*
X48142858Y-19235714D01*
X48100001Y-19150000D01*
X48014287Y-19021429D01*
X47971429Y-18978571D01*
D12*
X51504761Y-18597619D02*
X51504761Y-17497619D01*
X51838095Y-18283333D01*
X52171428Y-17497619D01*
X52171428Y-18597619D01*
X53076190Y-18597619D02*
X53076190Y-18021429D01*
X53028571Y-17916667D01*
X52933333Y-17864286D01*
X52742856Y-17864286D01*
X52647618Y-17916667D01*
X53076190Y-18545238D02*
X52980952Y-18597619D01*
X52742856Y-18597619D01*
X52647618Y-18545238D01*
X52599999Y-18440476D01*
X52599999Y-18335714D01*
X52647618Y-18230952D01*
X52742856Y-18178571D01*
X52980952Y-18178571D01*
X53076190Y-18126190D01*
X53552380Y-17864286D02*
X53552380Y-18597619D01*
X53552380Y-17969048D02*
X53599999Y-17916667D01*
X53695237Y-17864286D01*
X53838095Y-17864286D01*
X53933333Y-17916667D01*
X53980952Y-18021429D01*
X53980952Y-18597619D01*
X54457142Y-18597619D02*
X54457142Y-17864286D01*
X54457142Y-17497619D02*
X54409523Y-17550000D01*
X54457142Y-17602381D01*
X54504761Y-17550000D01*
X54457142Y-17497619D01*
X54457142Y-17602381D01*
X55361904Y-18597619D02*
X55361904Y-18021429D01*
X55314285Y-17916667D01*
X55219047Y-17864286D01*
X55028570Y-17864286D01*
X54933332Y-17916667D01*
X55361904Y-18545238D02*
X55266666Y-18597619D01*
X55028570Y-18597619D01*
X54933332Y-18545238D01*
X54885713Y-18440476D01*
X54885713Y-18335714D01*
X54933332Y-18230952D01*
X55028570Y-18178571D01*
X55266666Y-18178571D01*
X55361904Y-18126190D01*
X56266666Y-18545238D02*
X56171428Y-18597619D01*
X55980951Y-18597619D01*
X55885713Y-18545238D01*
X55838094Y-18492857D01*
X55790475Y-18388095D01*
X55790475Y-18073810D01*
X55838094Y-17969048D01*
X55885713Y-17916667D01*
X55980951Y-17864286D01*
X56171428Y-17864286D01*
X56266666Y-17916667D01*
X57123809Y-18597619D02*
X57123809Y-18021429D01*
X57076190Y-17916667D01*
X56980952Y-17864286D01*
X56790475Y-17864286D01*
X56695237Y-17916667D01*
X57123809Y-18545238D02*
X57028571Y-18597619D01*
X56790475Y-18597619D01*
X56695237Y-18545238D01*
X56647618Y-18440476D01*
X56647618Y-18335714D01*
X56695237Y-18230952D01*
X56790475Y-18178571D01*
X57028571Y-18178571D01*
X57123809Y-18126190D01*
X57742856Y-18597619D02*
X57647618Y-18545238D01*
X57599999Y-18440476D01*
X57599999Y-17497619D01*
X59361905Y-18597619D02*
X58885714Y-18597619D01*
X58885714Y-17497619D01*
X60123810Y-18597619D02*
X60123810Y-18021429D01*
X60076191Y-17916667D01*
X59980953Y-17864286D01*
X59790476Y-17864286D01*
X59695238Y-17916667D01*
X60123810Y-18545238D02*
X60028572Y-18597619D01*
X59790476Y-18597619D01*
X59695238Y-18545238D01*
X59647619Y-18440476D01*
X59647619Y-18335714D01*
X59695238Y-18230952D01*
X59790476Y-18178571D01*
X60028572Y-18178571D01*
X60123810Y-18126190D01*
X60600000Y-18597619D02*
X60600000Y-17497619D01*
X60600000Y-17916667D02*
X60695238Y-17864286D01*
X60885715Y-17864286D01*
X60980953Y-17916667D01*
X61028572Y-17969048D01*
X61076191Y-18073810D01*
X61076191Y-18388095D01*
X61028572Y-18492857D01*
X60980953Y-18545238D01*
X60885715Y-18597619D01*
X60695238Y-18597619D01*
X60600000Y-18545238D01*
X61457143Y-18545238D02*
X61552381Y-18597619D01*
X61742857Y-18597619D01*
X61838096Y-18545238D01*
X61885715Y-18440476D01*
X61885715Y-18388095D01*
X61838096Y-18283333D01*
X61742857Y-18230952D01*
X61600000Y-18230952D01*
X61504762Y-18178571D01*
X61457143Y-18073810D01*
X61457143Y-18021429D01*
X61504762Y-17916667D01*
X61600000Y-17864286D01*
X61742857Y-17864286D01*
X61838096Y-17916667D01*
X63552382Y-18597619D02*
X63076191Y-18597619D01*
X63076191Y-17497619D01*
X64028572Y-18597619D02*
X63933334Y-18545238D01*
X63885715Y-18492857D01*
X63838096Y-18388095D01*
X63838096Y-18073810D01*
X63885715Y-17969048D01*
X63933334Y-17916667D01*
X64028572Y-17864286D01*
X64171430Y-17864286D01*
X64266668Y-17916667D01*
X64314287Y-17969048D01*
X64361906Y-18073810D01*
X64361906Y-18388095D01*
X64314287Y-18492857D01*
X64266668Y-18545238D01*
X64171430Y-18597619D01*
X64028572Y-18597619D01*
X64790477Y-17864286D02*
X64790477Y-18597619D01*
X64790477Y-17969048D02*
X64838096Y-17916667D01*
X64933334Y-17864286D01*
X65076192Y-17864286D01*
X65171430Y-17916667D01*
X65219049Y-18021429D01*
X65219049Y-18597619D01*
X66123811Y-17864286D02*
X66123811Y-18754762D01*
X66076192Y-18859524D01*
X66028573Y-18911905D01*
X65933334Y-18964286D01*
X65790477Y-18964286D01*
X65695239Y-18911905D01*
X66123811Y-18545238D02*
X66028573Y-18597619D01*
X65838096Y-18597619D01*
X65742858Y-18545238D01*
X65695239Y-18492857D01*
X65647620Y-18388095D01*
X65647620Y-18073810D01*
X65695239Y-17969048D01*
X65742858Y-17916667D01*
X65838096Y-17864286D01*
X66028573Y-17864286D01*
X66123811Y-17916667D01*
X66600001Y-18597619D02*
X66600001Y-17497619D01*
X66980954Y-17497619D01*
X67076192Y-17550000D01*
X67123811Y-17602381D01*
X67171430Y-17707143D01*
X67171430Y-17864286D01*
X67123811Y-17969048D01*
X67076192Y-18021429D01*
X66980954Y-18073810D01*
X66600001Y-18073810D01*
X67600001Y-18597619D02*
X67600001Y-17864286D01*
X67600001Y-17497619D02*
X67552382Y-17550000D01*
X67600001Y-17602381D01*
X67647620Y-17550000D01*
X67600001Y-17497619D01*
X67600001Y-17602381D01*
X67980953Y-18597619D02*
X68504763Y-17864286D01*
X67980953Y-17864286D02*
X68504763Y-18597619D01*
X69266668Y-18545238D02*
X69171430Y-18597619D01*
X68980953Y-18597619D01*
X68885715Y-18545238D01*
X68838096Y-18440476D01*
X68838096Y-18021429D01*
X68885715Y-17916667D01*
X68980953Y-17864286D01*
X69171430Y-17864286D01*
X69266668Y-17916667D01*
X69314287Y-18021429D01*
X69314287Y-18126190D01*
X68838096Y-18230952D01*
X69885715Y-18597619D02*
X69790477Y-18545238D01*
X69742858Y-18440476D01*
X69742858Y-17497619D01*
X70933335Y-17864286D02*
X71171430Y-18597619D01*
X71409526Y-17864286D01*
X72314288Y-18597619D02*
X71742859Y-18597619D01*
X72028573Y-18597619D02*
X72028573Y-17497619D01*
X71933335Y-17654762D01*
X71838097Y-17759524D01*
X71742859Y-17811905D01*
X72742859Y-18492857D02*
X72790478Y-18545238D01*
X72742859Y-18597619D01*
X72695240Y-18545238D01*
X72742859Y-18492857D01*
X72742859Y-18597619D01*
X73409525Y-17497619D02*
X73504764Y-17497619D01*
X73600002Y-17550000D01*
X73647621Y-17602381D01*
X73695240Y-17707143D01*
X73742859Y-17916667D01*
X73742859Y-18178571D01*
X73695240Y-18388095D01*
X73647621Y-18492857D01*
X73600002Y-18545238D01*
X73504764Y-18597619D01*
X73409525Y-18597619D01*
X73314287Y-18545238D01*
X73266668Y-18492857D01*
X73219049Y-18388095D01*
X73171430Y-18178571D01*
X73171430Y-17916667D01*
X73219049Y-17707143D01*
X73266668Y-17602381D01*
X73314287Y-17550000D01*
X73409525Y-17497619D01*
D13*
X48798200Y-39850900D02*
X49550040Y-39850900D01*
X49550040Y-39850900D02*
X49550040Y-38151640D01*
X48798200Y-38151640D02*
X49550040Y-38151640D01*
X48798200Y-39850900D02*
X48798200Y-38151640D01*
X51449960Y-39848360D02*
X52201800Y-39848360D01*
X52201800Y-39848360D02*
X52201800Y-38149100D01*
X51449960Y-38149100D02*
X52201800Y-38149100D01*
X51449960Y-39848360D02*
X51449960Y-38149100D01*
X50301880Y-39398780D02*
X50698120Y-39398780D01*
X50698120Y-39398780D02*
X50698120Y-38601220D01*
X50301880Y-38601220D02*
X50698120Y-38601220D01*
X50301880Y-39398780D02*
X50301880Y-38601220D01*
D14*
X48028580Y-38017020D02*
X52971420Y-38017020D01*
X52971420Y-39982980D02*
X48028580Y-39982980D01*
X48028580Y-39982980D02*
X48028580Y-38017020D01*
X52971420Y-38017020D02*
X52971420Y-39982980D01*
D15*
X49537340Y-38215140D02*
X51462660Y-38215140D01*
X49537340Y-39784860D02*
X51462660Y-39784860D01*
D13*
X51399100Y-33548200D02*
X51399100Y-34300040D01*
X51399100Y-34300040D02*
X53098360Y-34300040D01*
X53098360Y-33548200D02*
X53098360Y-34300040D01*
X51399100Y-33548200D02*
X53098360Y-33548200D01*
X51401640Y-36199960D02*
X51401640Y-36951800D01*
X51401640Y-36951800D02*
X53100900Y-36951800D01*
X53100900Y-36199960D02*
X53100900Y-36951800D01*
X51401640Y-36199960D02*
X53100900Y-36199960D01*
X51851220Y-35051880D02*
X51851220Y-35448120D01*
X51851220Y-35448120D02*
X52648780Y-35448120D01*
X52648780Y-35051880D02*
X52648780Y-35448120D01*
X51851220Y-35051880D02*
X52648780Y-35051880D01*
D14*
X53232980Y-32778580D02*
X53232980Y-37721420D01*
X51267020Y-37721420D02*
X51267020Y-32778580D01*
X51267020Y-32778580D02*
X53232980Y-32778580D01*
X53232980Y-37721420D02*
X51267020Y-37721420D01*
D15*
X53034860Y-34287340D02*
X53034860Y-36212660D01*
X51465140Y-34287340D02*
X51465140Y-36212660D01*
D13*
X60701800Y-26899100D02*
X59949960Y-26899100D01*
X59949960Y-26899100D02*
X59949960Y-28598360D01*
X60701800Y-28598360D02*
X59949960Y-28598360D01*
X60701800Y-26899100D02*
X60701800Y-28598360D01*
X58050040Y-26901640D02*
X57298200Y-26901640D01*
X57298200Y-26901640D02*
X57298200Y-28600900D01*
X58050040Y-28600900D02*
X57298200Y-28600900D01*
X58050040Y-26901640D02*
X58050040Y-28600900D01*
X59198120Y-27351220D02*
X58801880Y-27351220D01*
X58801880Y-27351220D02*
X58801880Y-28148780D01*
X59198120Y-28148780D02*
X58801880Y-28148780D01*
X59198120Y-27351220D02*
X59198120Y-28148780D01*
D14*
X61471420Y-28732980D02*
X56528580Y-28732980D01*
X56528580Y-26767020D02*
X61471420Y-26767020D01*
X61471420Y-26767020D02*
X61471420Y-28732980D01*
X56528580Y-28732980D02*
X56528580Y-26767020D01*
D15*
X59962660Y-28534860D02*
X58037340Y-28534860D01*
X59962660Y-26965140D02*
X58037340Y-26965140D01*
D16*
X50488000Y-29171000D02*
X52012000Y-29171000D01*
X52393000Y-29044000D02*
X50107000Y-29044000D01*
X49853000Y-28917000D02*
X52647000Y-28917000D01*
X52901000Y-28790000D02*
X49599000Y-28790000D01*
X49472000Y-28663000D02*
X53028000Y-28663000D01*
X47948000Y-29552000D02*
X54552000Y-29552000D01*
X54552000Y-29552000D02*
X54552000Y-23710000D01*
X54552000Y-23710000D02*
X53790000Y-22948000D01*
X53790000Y-22948000D02*
X48710000Y-22948000D01*
X48710000Y-22948000D02*
X47948000Y-23710000D01*
X47948000Y-23710000D02*
X47948000Y-29552000D01*
X51250000Y-24091000D02*
X51250000Y-24853000D01*
X50869000Y-24472000D02*
X51631000Y-24472000D01*
X54298000Y-26250000D02*
G75*
G03X54298000Y-26250000I-3048000J0D01*
G01*
D17*
X37801380Y-31848800D02*
X37801380Y-20652480D01*
X37801380Y-20652480D02*
X44298700Y-20652480D01*
X44298700Y-20652480D02*
X45299460Y-20652480D01*
X45299460Y-20652480D02*
X45299460Y-31848800D01*
X45299460Y-31848800D02*
X44298700Y-31848800D01*
X44298700Y-31848800D02*
X37801380Y-31848800D01*
X44298700Y-20652480D02*
X44298700Y-31848800D01*
X43348740Y-31848800D02*
X43348740Y-32448240D01*
X43348740Y-32448240D02*
X44349500Y-32448240D01*
X44349500Y-32448240D02*
X44349500Y-31848800D01*
X38002040Y-20652480D02*
X38002040Y-20050500D01*
X38002040Y-20050500D02*
X39000260Y-20050500D01*
X39000260Y-20050500D02*
X39000260Y-20652480D01*
D18*
X38499326Y-26250640D02*
G75*
G03X38499326Y-26250640I-197566J0D01*
G01*
D16*
X60230000Y-20480000D02*
X55150000Y-20480000D01*
X55150000Y-20480000D02*
X55150000Y-23020000D01*
X55150000Y-23020000D02*
X60230000Y-23020000D01*
X63050000Y-23300000D02*
X61500000Y-23300000D01*
X60230000Y-23020000D02*
X60230000Y-20480000D01*
X61500000Y-20200000D02*
X63050000Y-20200000D01*
X63050000Y-20200000D02*
X63050000Y-23300000D01*
X60230000Y-42130000D02*
X55150000Y-42130000D01*
X55150000Y-42130000D02*
X55150000Y-44670000D01*
X55150000Y-44670000D02*
X60230000Y-44670000D01*
X63050000Y-44950000D02*
X61500000Y-44950000D01*
X60230000Y-44670000D02*
X60230000Y-42130000D01*
X61500000Y-41850000D02*
X63050000Y-41850000D01*
X63050000Y-41850000D02*
X63050000Y-44950000D01*
D19*
X85425000Y-20832000D02*
X85298000Y-21340000D01*
X84282000Y-20832000D02*
X85425000Y-20832000D01*
X84409000Y-21340000D02*
X84282000Y-20832000D01*
X80345000Y-36199000D02*
X84155000Y-36199000D01*
X80345000Y-36961000D02*
X80345000Y-36199000D01*
X84155000Y-36961000D02*
X80345000Y-36961000D01*
X84155000Y-36199000D02*
X84155000Y-36961000D01*
X84155000Y-36326000D02*
X80345000Y-36326000D01*
X84155000Y-36453000D02*
X80345000Y-36453000D01*
X84155000Y-36580000D02*
X80345000Y-36580000D01*
X84155000Y-36707000D02*
X80345000Y-36707000D01*
X84155000Y-36834000D02*
X80345000Y-36834000D01*
X80091000Y-31500000D02*
X84409000Y-31500000D01*
X80091000Y-41660000D02*
X80091000Y-31500000D01*
X84409000Y-41660000D02*
X80091000Y-41660000D01*
X84409000Y-31500000D02*
X84409000Y-41660000D01*
X84028000Y-34040000D02*
G75*
G03X84028000Y-34040000I-1778000J0D01*
G01*
D20*
X81107000Y-32897000D02*
X83393000Y-35183000D01*
X83266000Y-35310000D02*
X80980000Y-33024000D01*
X81234000Y-32770000D02*
X83520000Y-35056000D01*
X81234000Y-37850000D02*
X83520000Y-40136000D01*
X83266000Y-40390000D02*
X80980000Y-38104000D01*
X81107000Y-37977000D02*
X83393000Y-40263000D01*
D19*
X84028000Y-39120000D02*
G75*
G03X84028000Y-39120000I-1778000J0D01*
G01*
X78694000Y-41660000D02*
X80091000Y-41660000D01*
X78694000Y-31500000D02*
X78694000Y-41660000D01*
X80091000Y-31500000D02*
X78694000Y-31500000D01*
X86187000Y-41660000D02*
X84409000Y-41660000D01*
X86187000Y-31500000D02*
X86187000Y-41660000D01*
X84409000Y-31500000D02*
X86187000Y-31500000D01*
X85806000Y-34040000D02*
G75*
G03X85806000Y-34040000I-508000J0D01*
G01*
X85806000Y-39120000D02*
G75*
G03X85806000Y-39120000I-508000J0D01*
G01*
X85806000Y-28960000D02*
G75*
G03X85806000Y-28960000I-508000J0D01*
G01*
X85806000Y-23880000D02*
G75*
G03X85806000Y-23880000I-508000J0D01*
G01*
X84409000Y-21340000D02*
X86187000Y-21340000D01*
X86187000Y-21340000D02*
X86187000Y-31500000D01*
X86187000Y-31500000D02*
X84409000Y-31500000D01*
X80091000Y-21340000D02*
X78694000Y-21340000D01*
X78694000Y-21340000D02*
X78694000Y-31500000D01*
X78694000Y-31500000D02*
X80091000Y-31500000D01*
X84028000Y-28960000D02*
G75*
G03X84028000Y-28960000I-1778000J0D01*
G01*
D20*
X81107000Y-27817000D02*
X83393000Y-30103000D01*
X83266000Y-30230000D02*
X80980000Y-27944000D01*
X81234000Y-27690000D02*
X83520000Y-29976000D01*
X81234000Y-22610000D02*
X83520000Y-24896000D01*
X83266000Y-25150000D02*
X80980000Y-22864000D01*
X81107000Y-22737000D02*
X83393000Y-25023000D01*
D19*
X84028000Y-23880000D02*
G75*
G03X84028000Y-23880000I-1778000J0D01*
G01*
X84409000Y-21340000D02*
X84409000Y-31500000D01*
X84409000Y-31500000D02*
X80091000Y-31500000D01*
X80091000Y-31500000D02*
X80091000Y-21340000D01*
X80091000Y-21340000D02*
X84409000Y-21340000D01*
X84155000Y-26674000D02*
X80345000Y-26674000D01*
X84155000Y-26547000D02*
X80345000Y-26547000D01*
X84155000Y-26420000D02*
X80345000Y-26420000D01*
X84155000Y-26293000D02*
X80345000Y-26293000D01*
X84155000Y-26166000D02*
X80345000Y-26166000D01*
X84155000Y-26039000D02*
X84155000Y-26801000D01*
X84155000Y-26801000D02*
X80345000Y-26801000D01*
X80345000Y-26801000D02*
X80345000Y-26039000D01*
X80345000Y-26039000D02*
X84155000Y-26039000D01*
D16*
X67350000Y-37875000D02*
X66150000Y-37875000D01*
X66150000Y-36125000D02*
X67350000Y-36125000D01*
X67350000Y-30125000D02*
X66150000Y-30125000D01*
X66150000Y-28375000D02*
X67350000Y-28375000D01*
X67350000Y-22375000D02*
X66150000Y-22375000D01*
X66150000Y-20625000D02*
X67350000Y-20625000D01*
X61286000Y-39330000D02*
X56460000Y-39330000D01*
X56460000Y-39330000D02*
X56460000Y-29170000D01*
X56460000Y-29170000D02*
X61286000Y-29170000D01*
X61286000Y-29170000D02*
X61286000Y-39330000D01*
X59508000Y-29170000D02*
X59508000Y-29805000D01*
X59508000Y-29805000D02*
X58238000Y-29805000D01*
X58238000Y-29805000D02*
X58238000Y-29170000D01*
X47726000Y-37603000D02*
X50901000Y-37603000D01*
X50901000Y-37603000D02*
X50901000Y-35825000D01*
X50901000Y-35825000D02*
X47726000Y-35825000D01*
X47726000Y-42175000D02*
X50901000Y-42175000D01*
X50901000Y-42175000D02*
X50901000Y-40397000D01*
X50901000Y-40397000D02*
X47726000Y-40397000D01*
X41630000Y-35571000D02*
X47726000Y-35571000D01*
X47726000Y-35571000D02*
X47726000Y-42429000D01*
X47726000Y-42429000D02*
X39852000Y-42429000D01*
X39725000Y-42429000D02*
X39725000Y-35571000D01*
X39852000Y-35571000D02*
X41630000Y-35571000D01*
X71476000Y-35694000D02*
X68428000Y-35694000D01*
X68428000Y-35694000D02*
X68428000Y-42806000D01*
X68428000Y-42806000D02*
X71476000Y-42806000D01*
X74524000Y-35694000D02*
X75286000Y-35694000D01*
X75286000Y-35694000D02*
X77572000Y-37218000D01*
X77572000Y-37218000D02*
X77572000Y-41282000D01*
X77572000Y-41282000D02*
X75286000Y-42806000D01*
X75286000Y-42806000D02*
X74524000Y-42806000D01*
X71476000Y-27944000D02*
X68428000Y-27944000D01*
X68428000Y-27944000D02*
X68428000Y-35056000D01*
X68428000Y-35056000D02*
X71476000Y-35056000D01*
X74524000Y-27944000D02*
X75286000Y-27944000D01*
X75286000Y-27944000D02*
X77572000Y-29468000D01*
X77572000Y-29468000D02*
X77572000Y-33532000D01*
X77572000Y-33532000D02*
X75286000Y-35056000D01*
X75286000Y-35056000D02*
X74524000Y-35056000D01*
X71476000Y-20194000D02*
X68428000Y-20194000D01*
X68428000Y-20194000D02*
X68428000Y-27306000D01*
X68428000Y-27306000D02*
X71476000Y-27306000D01*
X74524000Y-20194000D02*
X75286000Y-20194000D01*
X75286000Y-20194000D02*
X77572000Y-21718000D01*
X77572000Y-21718000D02*
X77572000Y-25782000D01*
X77572000Y-25782000D02*
X75286000Y-27306000D01*
X75286000Y-27306000D02*
X74524000Y-27306000D01*
D13*
X57298200Y-26100900D02*
X58050040Y-26100900D01*
X58050040Y-26100900D02*
X58050040Y-24401640D01*
X57298200Y-24401640D02*
X58050040Y-24401640D01*
X57298200Y-26100900D02*
X57298200Y-24401640D01*
X59949960Y-26098360D02*
X60701800Y-26098360D01*
X60701800Y-26098360D02*
X60701800Y-24399100D01*
X59949960Y-24399100D02*
X60701800Y-24399100D01*
X59949960Y-26098360D02*
X59949960Y-24399100D01*
X58801880Y-25648780D02*
X59198120Y-25648780D01*
X59198120Y-25648780D02*
X59198120Y-24851220D01*
X58801880Y-24851220D02*
X59198120Y-24851220D01*
X58801880Y-25648780D02*
X58801880Y-24851220D01*
D14*
X56528580Y-24267020D02*
X61471420Y-24267020D01*
X61471420Y-26232980D02*
X56528580Y-26232980D01*
X56528580Y-26232980D02*
X56528580Y-24267020D01*
X61471420Y-24267020D02*
X61471420Y-26232980D01*
D15*
X58037340Y-24465140D02*
X59962660Y-24465140D01*
X58037340Y-26034860D02*
X59962660Y-26034860D01*
D16*
X60900000Y-39725000D02*
X62100000Y-39725000D01*
X62100000Y-41475000D02*
X60900000Y-41475000D01*
X56000000Y-39725000D02*
X57200000Y-39725000D01*
X57200000Y-41475000D02*
X56000000Y-41475000D01*
D21*
X53633334Y-40000000D02*
X53600000Y-40033333D01*
X53500000Y-40066667D01*
X53433334Y-40066667D01*
X53333334Y-40033333D01*
X53266667Y-39966667D01*
X53233334Y-39900000D01*
X53200000Y-39766667D01*
X53200000Y-39666667D01*
X53233334Y-39533333D01*
X53266667Y-39466667D01*
X53333334Y-39400000D01*
X53433334Y-39366667D01*
X53500000Y-39366667D01*
X53600000Y-39400000D01*
X53633334Y-39433333D01*
X54300000Y-40066667D02*
X53900000Y-40066667D01*
X54100000Y-40066667D02*
X54100000Y-39366667D01*
X54033334Y-39466667D01*
X53966667Y-39533333D01*
X53900000Y-39566667D01*
X53883334Y-37750000D02*
X53850000Y-37783333D01*
X53750000Y-37816667D01*
X53683334Y-37816667D01*
X53583334Y-37783333D01*
X53516667Y-37716667D01*
X53483334Y-37650000D01*
X53450000Y-37516667D01*
X53450000Y-37416667D01*
X53483334Y-37283333D01*
X53516667Y-37216667D01*
X53583334Y-37150000D01*
X53683334Y-37116667D01*
X53750000Y-37116667D01*
X53850000Y-37150000D01*
X53883334Y-37183333D01*
X54150000Y-37183333D02*
X54183334Y-37150000D01*
X54250000Y-37116667D01*
X54416667Y-37116667D01*
X54483334Y-37150000D01*
X54516667Y-37183333D01*
X54550000Y-37250000D01*
X54550000Y-37316667D01*
X54516667Y-37416667D01*
X54116667Y-37816667D01*
X54550000Y-37816667D01*
X62133334Y-28750000D02*
X62100000Y-28783333D01*
X62000000Y-28816667D01*
X61933334Y-28816667D01*
X61833334Y-28783333D01*
X61766667Y-28716667D01*
X61733334Y-28650000D01*
X61700000Y-28516667D01*
X61700000Y-28416667D01*
X61733334Y-28283333D01*
X61766667Y-28216667D01*
X61833334Y-28150000D01*
X61933334Y-28116667D01*
X62000000Y-28116667D01*
X62100000Y-28150000D01*
X62133334Y-28183333D01*
X62366667Y-28116667D02*
X62800000Y-28116667D01*
X62566667Y-28383333D01*
X62666667Y-28383333D01*
X62733334Y-28416667D01*
X62766667Y-28450000D01*
X62800000Y-28516667D01*
X62800000Y-28683333D01*
X62766667Y-28750000D01*
X62733334Y-28783333D01*
X62666667Y-28816667D01*
X62466667Y-28816667D01*
X62400000Y-28783333D01*
X62366667Y-28750000D01*
D16*
X49133334Y-22500000D02*
X49100000Y-22533333D01*
X49000000Y-22566667D01*
X48933334Y-22566667D01*
X48833334Y-22533333D01*
X48766667Y-22466667D01*
X48733334Y-22400000D01*
X48700000Y-22266667D01*
X48700000Y-22166667D01*
X48733334Y-22033333D01*
X48766667Y-21966667D01*
X48833334Y-21900000D01*
X48933334Y-21866667D01*
X49000000Y-21866667D01*
X49100000Y-21900000D01*
X49133334Y-21933333D01*
X49733334Y-22100000D02*
X49733334Y-22566667D01*
X49566667Y-21833333D02*
X49400000Y-22333333D01*
X49833334Y-22333333D01*
D21*
X46166667Y-31616667D02*
X46166667Y-32116667D01*
X46133333Y-32216667D01*
X46066667Y-32283333D01*
X45966667Y-32316667D01*
X45900000Y-32316667D01*
X46500000Y-32316667D02*
X46500000Y-31616667D01*
X46766666Y-31616667D01*
X46833333Y-31650000D01*
X46866666Y-31683333D01*
X46900000Y-31750000D01*
X46900000Y-31850000D01*
X46866666Y-31916667D01*
X46833333Y-31950000D01*
X46766666Y-31983333D01*
X46500000Y-31983333D01*
X47566666Y-32316667D02*
X47166666Y-32316667D01*
X47366666Y-32316667D02*
X47366666Y-31616667D01*
X47300000Y-31716667D01*
X47233333Y-31783333D01*
X47166666Y-31816667D01*
D16*
X63283334Y-22016667D02*
X63283334Y-21316667D01*
X63550000Y-21316667D01*
X63616667Y-21350000D01*
X63650000Y-21383333D01*
X63683334Y-21450000D01*
X63683334Y-21550000D01*
X63650000Y-21616667D01*
X63616667Y-21650000D01*
X63550000Y-21683333D01*
X63283334Y-21683333D01*
X64350000Y-22016667D02*
X63950000Y-22016667D01*
X64150000Y-22016667D02*
X64150000Y-21316667D01*
X64083334Y-21416667D01*
X64016667Y-21483333D01*
X63950000Y-21516667D01*
X53733334Y-43716667D02*
X53733334Y-43016667D01*
X54000000Y-43016667D01*
X54066667Y-43050000D01*
X54100000Y-43083333D01*
X54133334Y-43150000D01*
X54133334Y-43250000D01*
X54100000Y-43316667D01*
X54066667Y-43350000D01*
X54000000Y-43383333D01*
X53733334Y-43383333D01*
X54400000Y-43083333D02*
X54433334Y-43050000D01*
X54500000Y-43016667D01*
X54666667Y-43016667D01*
X54733334Y-43050000D01*
X54766667Y-43083333D01*
X54800000Y-43150000D01*
X54800000Y-43216667D01*
X54766667Y-43316667D01*
X54366667Y-43716667D01*
X54800000Y-43716667D01*
D22*
X81400077Y-20867695D02*
X81400077Y-20054895D01*
X81709715Y-20054895D01*
X81787124Y-20093600D01*
X81825829Y-20132305D01*
X81864534Y-20209714D01*
X81864534Y-20325829D01*
X81825829Y-20403238D01*
X81787124Y-20441943D01*
X81709715Y-20480648D01*
X81400077Y-20480648D01*
X82135467Y-20054895D02*
X82638629Y-20054895D01*
X82367696Y-20364533D01*
X82483810Y-20364533D01*
X82561220Y-20403238D01*
X82599924Y-20441943D01*
X82638629Y-20519352D01*
X82638629Y-20712876D01*
X82599924Y-20790286D01*
X82561220Y-20828990D01*
X82483810Y-20867695D01*
X82251582Y-20867695D01*
X82174172Y-20828990D01*
X82135467Y-20790286D01*
X84891600Y-32303124D02*
X84852895Y-32380533D01*
X84852895Y-32496648D01*
X84891600Y-32612762D01*
X84969010Y-32690171D01*
X85046419Y-32728876D01*
X85201238Y-32767581D01*
X85317352Y-32767581D01*
X85472171Y-32728876D01*
X85549581Y-32690171D01*
X85626990Y-32612762D01*
X85665695Y-32496648D01*
X85665695Y-32419238D01*
X85626990Y-32303124D01*
X85588286Y-32264419D01*
X85317352Y-32264419D01*
X85317352Y-32419238D01*
X85239943Y-37537943D02*
X85278648Y-37421829D01*
X85317352Y-37383124D01*
X85394762Y-37344419D01*
X85510876Y-37344419D01*
X85588286Y-37383124D01*
X85626990Y-37421829D01*
X85665695Y-37499238D01*
X85665695Y-37808876D01*
X84852895Y-37808876D01*
X84852895Y-37537943D01*
X84891600Y-37460533D01*
X84930305Y-37421829D01*
X85007714Y-37383124D01*
X85085124Y-37383124D01*
X85162533Y-37421829D01*
X85201238Y-37460533D01*
X85239943Y-37537943D01*
X85239943Y-37808876D01*
X85665695Y-27184419D02*
X85278648Y-27455352D01*
X85665695Y-27648876D02*
X84852895Y-27648876D01*
X84852895Y-27339238D01*
X84891600Y-27261829D01*
X84930305Y-27223124D01*
X85007714Y-27184419D01*
X85123829Y-27184419D01*
X85201238Y-27223124D01*
X85239943Y-27261829D01*
X85278648Y-27339238D01*
X85278648Y-27648876D01*
X84852895Y-23130095D02*
X85665695Y-22859162D01*
X84852895Y-22588229D01*
X85356057Y-22317295D02*
X85356057Y-21698019D01*
X85665695Y-22007657D02*
X85046419Y-22007657D01*
D16*
X66583334Y-35816667D02*
X66350000Y-35483333D01*
X66183334Y-35816667D02*
X66183334Y-35116667D01*
X66450000Y-35116667D01*
X66516667Y-35150000D01*
X66550000Y-35183333D01*
X66583334Y-35250000D01*
X66583334Y-35350000D01*
X66550000Y-35416667D01*
X66516667Y-35450000D01*
X66450000Y-35483333D01*
X66183334Y-35483333D01*
X67250000Y-35816667D02*
X66850000Y-35816667D01*
X67050000Y-35816667D02*
X67050000Y-35116667D01*
X66983334Y-35216667D01*
X66916667Y-35283333D01*
X66850000Y-35316667D01*
X66683334Y-28116667D02*
X66450000Y-27783333D01*
X66283334Y-28116667D02*
X66283334Y-27416667D01*
X66550000Y-27416667D01*
X66616667Y-27450000D01*
X66650000Y-27483333D01*
X66683334Y-27550000D01*
X66683334Y-27650000D01*
X66650000Y-27716667D01*
X66616667Y-27750000D01*
X66550000Y-27783333D01*
X66283334Y-27783333D01*
X66950000Y-27483333D02*
X66983334Y-27450000D01*
X67050000Y-27416667D01*
X67216667Y-27416667D01*
X67283334Y-27450000D01*
X67316667Y-27483333D01*
X67350000Y-27550000D01*
X67350000Y-27616667D01*
X67316667Y-27716667D01*
X66916667Y-28116667D01*
X67350000Y-28116667D01*
X66683334Y-20316667D02*
X66450000Y-19983333D01*
X66283334Y-20316667D02*
X66283334Y-19616667D01*
X66550000Y-19616667D01*
X66616667Y-19650000D01*
X66650000Y-19683333D01*
X66683334Y-19750000D01*
X66683334Y-19850000D01*
X66650000Y-19916667D01*
X66616667Y-19950000D01*
X66550000Y-19983333D01*
X66283334Y-19983333D01*
X66916667Y-19616667D02*
X67350000Y-19616667D01*
X67116667Y-19883333D01*
X67216667Y-19883333D01*
X67283334Y-19916667D01*
X67316667Y-19950000D01*
X67350000Y-20016667D01*
X67350000Y-20183333D01*
X67316667Y-20250000D01*
X67283334Y-20283333D01*
X67216667Y-20316667D01*
X67016667Y-20316667D01*
X66950000Y-20283333D01*
X66916667Y-20250000D01*
X61766667Y-29116667D02*
X61766667Y-29683333D01*
X61800000Y-29750000D01*
X61833333Y-29783333D01*
X61900000Y-29816667D01*
X62033333Y-29816667D01*
X62100000Y-29783333D01*
X62133333Y-29750000D01*
X62166667Y-29683333D01*
X62166667Y-29116667D01*
X62866666Y-29816667D02*
X62466666Y-29816667D01*
X62666666Y-29816667D02*
X62666666Y-29116667D01*
X62600000Y-29216667D01*
X62533333Y-29283333D01*
X62466666Y-29316667D01*
X51266667Y-41516667D02*
X51266667Y-42083333D01*
X51300000Y-42150000D01*
X51333333Y-42183333D01*
X51400000Y-42216667D01*
X51533333Y-42216667D01*
X51600000Y-42183333D01*
X51633333Y-42150000D01*
X51666667Y-42083333D01*
X51666667Y-41516667D01*
X51966666Y-41583333D02*
X52000000Y-41550000D01*
X52066666Y-41516667D01*
X52233333Y-41516667D01*
X52300000Y-41550000D01*
X52333333Y-41583333D01*
X52366666Y-41650000D01*
X52366666Y-41716667D01*
X52333333Y-41816667D01*
X51933333Y-42216667D01*
X52366666Y-42216667D01*
D10*
X77433333Y-36633333D02*
X77366667Y-36600000D01*
X77300000Y-36533333D01*
X77200000Y-36433333D01*
X77133333Y-36400000D01*
X77066667Y-36400000D01*
X77100000Y-36566667D02*
X77033333Y-36533333D01*
X76966667Y-36466667D01*
X76933333Y-36333333D01*
X76933333Y-36100000D01*
X76966667Y-35966667D01*
X77033333Y-35900000D01*
X77100000Y-35866667D01*
X77233333Y-35866667D01*
X77300000Y-35900000D01*
X77366667Y-35966667D01*
X77400000Y-36100000D01*
X77400000Y-36333333D01*
X77366667Y-36466667D01*
X77300000Y-36533333D01*
X77233333Y-36566667D01*
X77100000Y-36566667D01*
X78066666Y-36566667D02*
X77666666Y-36566667D01*
X77866666Y-36566667D02*
X77866666Y-35866667D01*
X77800000Y-35966667D01*
X77733333Y-36033333D01*
X77666666Y-36066667D01*
X77433333Y-28883333D02*
X77366667Y-28850000D01*
X77300000Y-28783333D01*
X77200000Y-28683333D01*
X77133333Y-28650000D01*
X77066667Y-28650000D01*
X77100000Y-28816667D02*
X77033333Y-28783333D01*
X76966667Y-28716667D01*
X76933333Y-28583333D01*
X76933333Y-28350000D01*
X76966667Y-28216667D01*
X77033333Y-28150000D01*
X77100000Y-28116667D01*
X77233333Y-28116667D01*
X77300000Y-28150000D01*
X77366667Y-28216667D01*
X77400000Y-28350000D01*
X77400000Y-28583333D01*
X77366667Y-28716667D01*
X77300000Y-28783333D01*
X77233333Y-28816667D01*
X77100000Y-28816667D01*
X77666666Y-28183333D02*
X77700000Y-28150000D01*
X77766666Y-28116667D01*
X77933333Y-28116667D01*
X78000000Y-28150000D01*
X78033333Y-28183333D01*
X78066666Y-28250000D01*
X78066666Y-28316667D01*
X78033333Y-28416667D01*
X77633333Y-28816667D01*
X78066666Y-28816667D01*
X77433333Y-21133333D02*
X77366667Y-21100000D01*
X77300000Y-21033333D01*
X77200000Y-20933333D01*
X77133333Y-20900000D01*
X77066667Y-20900000D01*
X77100000Y-21066667D02*
X77033333Y-21033333D01*
X76966667Y-20966667D01*
X76933333Y-20833333D01*
X76933333Y-20600000D01*
X76966667Y-20466667D01*
X77033333Y-20400000D01*
X77100000Y-20366667D01*
X77233333Y-20366667D01*
X77300000Y-20400000D01*
X77366667Y-20466667D01*
X77400000Y-20600000D01*
X77400000Y-20833333D01*
X77366667Y-20966667D01*
X77300000Y-21033333D01*
X77233333Y-21066667D01*
X77100000Y-21066667D01*
X77633333Y-20366667D02*
X78066666Y-20366667D01*
X77833333Y-20633333D01*
X77933333Y-20633333D01*
X78000000Y-20666667D01*
X78033333Y-20700000D01*
X78066666Y-20766667D01*
X78066666Y-20933333D01*
X78033333Y-21000000D01*
X78000000Y-21033333D01*
X77933333Y-21066667D01*
X77733333Y-21066667D01*
X77666666Y-21033333D01*
X77633333Y-21000000D01*
D21*
X61966667Y-25950000D02*
X61733334Y-25950000D01*
X61733334Y-26316667D02*
X61733334Y-25616667D01*
X62066667Y-25616667D01*
X62700000Y-26316667D02*
X62300000Y-26316667D01*
X62500000Y-26316667D02*
X62500000Y-25616667D01*
X62433334Y-25716667D01*
X62366667Y-25783333D01*
X62300000Y-25816667D01*
D16*
X59183334Y-41416667D02*
X58950000Y-41083333D01*
X58783334Y-41416667D02*
X58783334Y-40716667D01*
X59050000Y-40716667D01*
X59116667Y-40750000D01*
X59150000Y-40783333D01*
X59183334Y-40850000D01*
X59183334Y-40950000D01*
X59150000Y-41016667D01*
X59116667Y-41050000D01*
X59050000Y-41083333D01*
X58783334Y-41083333D01*
X59783334Y-40950000D02*
X59783334Y-41416667D01*
X59616667Y-40683333D02*
X59450000Y-41183333D01*
X59883334Y-41183333D01*
X54283334Y-41416667D02*
X54050000Y-41083333D01*
X53883334Y-41416667D02*
X53883334Y-40716667D01*
X54150000Y-40716667D01*
X54216667Y-40750000D01*
X54250000Y-40783333D01*
X54283334Y-40850000D01*
X54283334Y-40950000D01*
X54250000Y-41016667D01*
X54216667Y-41050000D01*
X54150000Y-41083333D01*
X53883334Y-41083333D01*
X54916667Y-40716667D02*
X54583334Y-40716667D01*
X54550000Y-41050000D01*
X54583334Y-41016667D01*
X54650000Y-40983333D01*
X54816667Y-40983333D01*
X54883334Y-41016667D01*
X54916667Y-41050000D01*
X54950000Y-41116667D01*
X54950000Y-41283333D01*
X54916667Y-41350000D01*
X54883334Y-41383333D01*
X54816667Y-41416667D01*
X54650000Y-41416667D01*
X54583334Y-41383333D01*
X54550000Y-41350000D01*
M02*
